<svg xmlns="http://www.w3.org/2000/svg" xmlns:xlink="http://www.w3.org/1999/xlink" width="36" height="31" viewBox="0 0 36 31"><defs><path id="rdp5a" d="M1230.54 74.88a2.57 2.57 0 0 1-3.59.66l-10.6-7.4a2.6 2.6 0 0 1-1.11-2.23 9.29 9.29 0 0 1-5.17 2.84 9.4 9.4 0 0 1-10.91-7.6c-.46-2.5.08-5 1.5-7.08a9.35 9.35 0 0 1 13.06-2.4 9.52 9.52 0 0 1 3.1 11.94 2.56 2.56 0 0 1 2.46.26l10.6 7.4a2.61 2.61 0 0 1 .66 3.6zm-15.72-16.61A6.55 6.55 0 0 0 1203 55.7c-2.05 2.99-1.3 7.1 1.66 9.17a6.52 6.52 0 0 0 9.1-1.67c1-1.44 1.37-3.2 1.06-4.93z"/></defs><g><g transform="translate(-1197 -47)"><use fill="#396047" xlink:href="#rdp5a"/></g></g></svg>